<?xml version="1.0" encoding="iso-8859-1"?>
<!-- Uploaded to: SVG Repo, www.svgrepo.com, Generator: SVG Repo Mixer Tools -->
<svg version="1.1" id="Layer_1" xmlns="http://www.w3.org/2000/svg" xmlns:xlink="http://www.w3.org/1999/xlink" 
	 viewBox="0 0 512 512" xml:space="preserve">
<rect x="207.404" y="119.734" style="fill:#B2A49B;" width="97.28" height="56.11"/>
<rect x="232.122" y="63.123" style="fill:#A0D2F0;" width="47.927" height="32.063"/>
<rect x="143.78" y="175.843" style="fill:#D2555A;" width="225.11" height="328.141"/>
<rect x="207.404" y="175.843" style="fill:#FF6464;" width="96.689" height="328.141"/>
<path style="fill:#8D8A94;" d="M392.432,503.984H119.9V475.93c0-2.213,1.795-4.008,4.008-4.008h264.517
	c2.213,0,4.008,1.794,4.008,4.008V503.984z"/>
<rect x="143.78" y="175.843" style="fill:#B94B50;" width="225.11" height="19.037"/>
<rect x="207.404" y="175.843" style="fill:#D2555A;" width="96.689" height="19.037"/>
<g>
	<rect x="200.39" y="95.186" style="fill:#FF6464;" width="111.217" height="24.548"/>
	<path style="fill:#FF6464;" d="M287.561,63.123l-27.719-35.039c-1.893-2.338-5.458-2.338-7.35,0l-28.054,35.039H287.561z"/>
</g>
<path d="M400.281,496.971h-0.501v-24.548c0-4.15-3.365-7.515-7.515-7.515h-16.532v-281.55h0.501c4.15,0,7.515-3.365,7.515-7.515
	s-3.365-7.515-7.515-7.515h-64.626v-41.08h0.501h8.016c4.15,0,7.515-3.365,7.515-7.515c0-4.15-3.365-7.515-7.515-7.515h-0.501
	V95.687c0-4.15-3.365-7.515-7.515-7.515h-24.548V71.139h0.501c2.889,0,5.522-1.656,6.773-4.259c1.251-2.604,0.9-5.694-0.905-7.95
	l-30.416-38.02v-5.88h0.501c4.15,0,7.515-3.365,7.515-7.515S268.165,0,264.015,0h-16.031c-4.15,0-7.515,3.365-7.515,7.515
	s3.365,7.515,7.515,7.515h0.501v5.88l-30.415,38.02c-1.805,2.255-2.156,5.346-0.905,7.95c1.251,2.603,3.885,4.259,6.773,4.259h0.501
	v17.033H199.89c-4.15,0-7.515,3.365-7.515,7.515v16.532h-0.501c-4.15,0-7.515,3.365-7.515,7.515c0,4.15,3.365,7.515,7.515,7.515
	h8.016h0.501v41.08h-64.626c-4.15,0-7.515,3.365-7.515,7.515s3.365,7.515,7.515,7.515h0.501v281.55h-16.532
	c-4.15,0-7.515,3.365-7.515,7.515v24.548h-0.501c-4.15,0-7.515,3.365-7.515,7.515s3.365,7.515,7.515,7.515h288.564
	c4.15,0,7.515-3.365,7.515-7.515S404.431,496.971,400.281,496.971z M311.608,464.908v-41.08h49.096v41.08H311.608z M215.42,464.908
	v-41.08h81.159v41.08H215.42z M215.42,408.798v-225.44h81.159v225.44H215.42z M360.704,183.358v225.44h-49.096v-225.44H360.704z
	 M255.999,35.575l16.428,20.534h-32.855L255.999,35.575z M239.467,71.139h33.065v17.033h-9.018v-0.501
	c0-4.15-3.365-7.515-7.515-7.515s-7.515,3.365-7.515,7.515v0.501h-9.018V71.139z M207.404,103.202h97.19v9.018h-97.19V103.202z
	 M215.42,127.249h81.159v41.08H215.42V127.249z M200.39,183.358v225.44h-49.096v-225.44H200.39z M151.295,423.828h49.096v41.08
	h-49.096V423.828z M127.248,479.937H384.75v17.033H127.248V479.937z"/>
<path d="M255.999,200.391c-4.15,0-7.515,3.365-7.515,7.515v16.031c0,4.15,3.365,7.515,7.515,7.515s7.515-3.365,7.515-7.515v-16.031
	C263.514,203.756,260.149,200.391,255.999,200.391z"/>
<path d="M255.999,360.704c-4.15,0-7.515,3.365-7.515,7.515v16.031c0,4.15,3.365,7.515,7.515,7.515s7.515-3.365,7.515-7.515v-16.031
	C263.514,364.069,260.149,360.704,255.999,360.704z"/>
<path d="M261.309,435.05c-1.393-1.403-3.336-2.204-5.31-2.204c-1.974,0-3.918,0.802-5.31,2.204c-1.403,1.393-2.204,3.337-2.204,5.31
	s0.802,3.918,2.204,5.31c1.393,1.403,3.337,2.204,5.31,2.204s3.918-0.802,5.31-2.204c1.403-1.393,2.204-3.337,2.204-5.31
	S262.712,436.442,261.309,435.05z"/>
<path d="M341.466,435.05c-1.393-1.403-3.336-2.204-5.31-2.204c-1.974,0-3.918,0.802-5.31,2.204c-1.403,1.393-2.204,3.337-2.204,5.31
	s0.802,3.918,2.204,5.31c1.393,1.403,3.336,2.204,5.31,2.204c1.974,0,3.918-0.802,5.31-2.204c1.403-1.393,2.204-3.337,2.204-5.31
	S342.869,436.442,341.466,435.05z"/>
<path d="M181.153,435.05c-1.393-1.403-3.337-2.204-5.31-2.204c-1.974,0-3.918,0.802-5.31,2.204c-1.403,1.393-2.204,3.337-2.204,5.31
	s0.802,3.918,2.204,5.31c1.393,1.403,3.337,2.204,5.31,2.204c1.974,0,3.918-0.802,5.31-2.204c1.403-1.393,2.204-3.337,2.204-5.31
	S182.556,436.442,181.153,435.05z"/>
<path d="M255.999,272.532c-4.15,0-7.515,3.365-7.515,7.515v32.063c0,4.15,3.365,7.515,7.515,7.515s7.515-3.365,7.515-7.515v-32.063
	C263.514,275.897,260.149,272.532,255.999,272.532z"/>
<path d="M336.156,231.452c4.15,0,7.515-3.365,7.515-7.515v-16.031c0-4.15-3.365-7.515-7.515-7.515c-4.15,0-7.515,3.365-7.515,7.515
	v16.031C328.641,228.087,332.005,231.452,336.156,231.452z"/>
<path d="M336.156,391.765c4.15,0,7.515-3.365,7.515-7.515v-16.031c0-4.15-3.365-7.515-7.515-7.515c-4.15,0-7.515,3.365-7.515,7.515
	v16.031C328.641,388.401,332.005,391.765,336.156,391.765z"/>
<path d="M336.156,319.624c4.15,0,7.515-3.365,7.515-7.515v-32.063c0-4.15-3.365-7.515-7.515-7.515c-4.15,0-7.515,3.365-7.515,7.515
	v32.063C328.641,316.26,332.005,319.624,336.156,319.624z"/>
<path d="M175.842,231.452c4.15,0,7.515-3.365,7.515-7.515v-16.031c0-4.15-3.365-7.515-7.515-7.515s-7.515,3.365-7.515,7.515v16.031
	C168.328,228.087,171.692,231.452,175.842,231.452z"/>
<path d="M175.842,391.765c4.15,0,7.515-3.365,7.515-7.515v-16.031c0-4.15-3.365-7.515-7.515-7.515s-7.515,3.365-7.515,7.515v16.031
	C168.328,388.401,171.692,391.765,175.842,391.765z"/>
<path d="M175.842,319.624c4.15,0,7.515-3.365,7.515-7.515v-32.063c0-4.15-3.365-7.515-7.515-7.515s-7.515,3.365-7.515,7.515v32.063
	C168.328,316.26,171.692,319.624,175.842,319.624z"/>
<path d="M264.015,136.266h-16.031c-4.15,0-7.515,3.365-7.515,7.515s3.365,7.515,7.515,7.515h16.031c4.15,0,7.515-3.365,7.515-7.515
	S268.165,136.266,264.015,136.266z"/>
</svg>